<svg xmlns="http://www.w3.org/2000/svg" viewBox="0 0 135.21 135.21"><g id="Camada_2" data-name="Camada 2"><g id="Cabeçalho"><circle cx="67.6" cy="67.6" r="67.6" fill="#fff"/><path d="M89.4,85c-.52,3.61-2.55,5.68-6.12,6.18a6.57,6.57,0,0,1-10.67,4.72,29.73,29.73,0,0,1-2.56,2.8A6.39,6.39,0,0,1,59.7,96.43a2.27,2.27,0,0,0-.15-.25,6.55,6.55,0,0,1-8.62-5.82,6.64,6.64,0,0,1-6.17-6.21,7,7,0,0,1-3.95-1.68,6.49,6.49,0,0,1-1.11-8.33,1.05,1.05,0,0,0,.07-1.32,9.78,9.78,0,0,1-1.16-4.71,5.69,5.69,0,0,0-1.85-3.87c-1.58-1.56-3.15-3.14-4.72-4.72A2.31,2.31,0,0,1,32,56L50,38c1.21-1.21,2.34-1.21,3.56,0,1.88,1.87,3.76,3.74,5.62,5.64a3,3,0,0,0,2.27.95q6.12,0,12.23,0a2.89,2.89,0,0,0,2.21-.92c1.9-1.95,3.83-3.88,5.75-5.81,1.25-1.24,2.36-1.24,3.61,0l17.88,18a2.2,2.2,0,0,1,0,3.52c-1.89,1.92-3.79,3.85-5.7,5.75a3.07,3.07,0,0,0-1,2.26,12.12,12.12,0,0,1-2,6.55.74.74,0,0,0,0,1,6.47,6.47,0,0,1-3.62,9.87C90.33,84.89,89.88,84.94,89.4,85ZM51.93,42.45,36.27,57.77l3.65,3.61a9.64,9.64,0,0,1,3,6.56c0,.75.18,1.48.3,2.42a6.61,6.61,0,0,1,6-2.23,6.5,6.5,0,0,1,5,3.83C57,70.64,59.67,70.79,61.91,73s2.48,5,1.11,7.91a6.56,6.56,0,0,1,3.87,5.29.62.62,0,0,0,.45.41,7.53,7.53,0,0,1,4.57,2.52c1.1,1.13,2.21,2.27,3.36,3.37a2.18,2.18,0,0,0,3.64-2,3.37,3.37,0,0,0-.81-1.45c-1.21-1.29-2.5-2.52-3.73-3.8a2.08,2.08,0,0,1-.4-2.49,2,2,0,0,1,2.26-1.08,3.13,3.13,0,0,1,1.32.76c1.25,1.2,2.45,2.44,3.67,3.67a2.18,2.18,0,0,0,2,.75A2.08,2.08,0,0,0,85,85.46a2.2,2.2,0,0,0-.52-2.37c-1.24-1.27-2.52-2.51-3.74-3.79A3.18,3.18,0,0,1,80,78a2,2,0,0,1,1-2.29,2.06,2.06,0,0,1,2.54.36c1.29,1.26,2.54,2.56,3.82,3.83a2.21,2.21,0,0,0,3.22.19,2.23,2.23,0,0,0,0-3.29q-7-7.11-14.07-14.17a1.11,1.11,0,0,0-.73-.3,13.49,13.49,0,0,1-6.63-1.2,2.9,2.9,0,0,0-1-.21,3.15,3.15,0,0,0-2.58,1.38,10.61,10.61,0,0,1-14.08,1.24c-1.52-1.14-1.66-2.27-.45-3.73q4.08-4.87,8.15-9.77l1-1.27c-.48-.13-.9-.23-1.3-.36a7.72,7.72,0,0,1-3.16-2.22C54.42,44.9,53.08,43.6,51.93,42.45ZM55.6,61a6.44,6.44,0,0,0,4.31,0,8.07,8.07,0,0,0,3.24-2.35,6.63,6.63,0,0,1,3.64-1.92,8.85,8.85,0,0,1,5,.84,7.88,7.88,0,0,0,6.59-.39A8.86,8.86,0,0,0,82,53.62a2,2,0,0,1,2.83-.78,2.07,2.07,0,0,1,.86,2.81,12.17,12.17,0,0,1-3.94,4.49l-1,.7L91.11,71.06a8.63,8.63,0,0,0,1-4.18,6.14,6.14,0,0,1,1.61-4.07c1.46-1.55,3-3.05,4.47-4.58l.65-.68L83.29,42.31c-1.24,1.21-2.64,2.46-3.89,3.84A7.79,7.79,0,0,1,73,48.83c-2-.07-4,0-6,.06A2.77,2.77,0,0,0,64.75,50c-2.19,2.73-4.47,5.4-6.71,8.09ZM49.05,83.47a2.34,2.34,0,0,0,1.3,2.38,2,2,0,0,0,2.42-.41c2.09-2.07,4.16-4.14,6.2-6.26a2.21,2.21,0,1,0-3.19-3.07c-2,2-4,4-6,6.06A5.07,5.07,0,0,0,49.05,83.47Zm1.35-8.64a2.32,2.32,0,0,0-1.34-2.33,2,2,0,0,0-2.31.36C45.62,74,44.51,75,43.45,76.19a2.22,2.22,0,0,0,.16,3.08,2.14,2.14,0,0,0,3,0c1.08-1,2.14-2.08,3.14-3.18A4.62,4.62,0,0,0,50.4,74.83Zm7.29,17.42a3.76,3.76,0,0,0,1.14-.57Q60.55,90,62.18,88.3a2.2,2.2,0,0,0-.12-2.92,2,2,0,0,0-2.83-.28,49.19,49.19,0,0,0-3.6,3.62,2,2,0,0,0-.17,2.33A2.29,2.29,0,0,0,57.69,92.25Zm8,4a3.93,3.93,0,0,0,3.08-2.69,2.17,2.17,0,0,0-2.47-2.62,4.65,4.65,0,0,0-2.69,2.42A2.23,2.23,0,0,0,65.67,96.22Z" fill="#001e60"/></g></g></svg>