<svg xmlns="http://www.w3.org/2000/svg" viewBox="0 0 135.21 135.21"><g id="Camada_2" data-name="Camada 2"><g id="Cabeçalho"><circle cx="67.6" cy="67.6" r="67.6" fill="#fff"/><path d="M46.48,35.21h1c.49.4,1,.78,1.46,1.22,1.39,1.35,2.76,2.73,4.11,4.11a.55.55,0,0,0,.75.14c7.7-3.75,15.69-4.46,23.75-1.56,11.22,4,18,12.07,20.43,23.76.24,1.14.34,2.3.5,3.45v3.88l-.15,1.22A30.89,30.89,0,1,1,39.91,54.6a.62.62,0,0,0-.13-.85c-1.53-1.5-3.05-3-4.56-4.54A1.9,1.9,0,0,1,36,45.83c2.05-.76,4.1-1.51,6.13-2.3a1.38,1.38,0,0,0,.7-.69C43.55,40.9,44.29,39,45,37A2.75,2.75,0,0,1,46.48,35.21ZM57.15,50.58A20.55,20.55,0,0,1,82.26,82.65a20.45,20.45,0,0,1-26,2.78,19.86,19.86,0,0,1-8.29-11,20.39,20.39,0,0,1,1.85-16.5l-.54,0c-1,.19-2,.36-3.07.57a2.26,2.26,0,0,1-2.42-.74c-.25-.3-.48-.61-.78-1a27.16,27.16,0,1,0,13-13c.31.21.56.36.79.54a2.5,2.5,0,0,1,.9,2.83C57.5,48.26,57.37,49.38,57.15,50.58Zm-2.64,7.3a16.84,16.84,0,1,0,2.68-2.65c.13.13.24.27.37.4,1.28,1.28,2.58,2.55,3.83,3.85.35.36.57.35,1,.12A10.16,10.16,0,0,1,77.62,69.78,10.15,10.15,0,0,1,57.93,71.5a10,10,0,0,1,1-8.47c.13-.22.35-.41.05-.7C57.47,60.87,56,59.39,54.51,57.88Zm10.12,4.8.47.49c1.24,1.24,2.48,2.47,3.71,3.72a1.88,1.88,0,1,1-2.67,2.63c-1-1-2-2-3-3-.37-.38-.7-.81-1.09-1.26a6.39,6.39,0,1,0,10.53-1A6.3,6.3,0,0,0,64.63,62.68ZM53.2,51.28c.25-1.39.46-2.66.72-3.91a1,1,0,0,0-.31-1c-1.83-1.81-3.65-3.64-5.47-5.46l-.46-.39c-.46,1.23-.9,2.38-1.31,3.55a.58.58,0,0,0,.13.48C48.69,46.77,50.9,49,53.2,51.28Zm-2.75,2.66c-.05-.1-.05-.14-.08-.17q-3.25-3.27-6.52-6.52c-.1-.1-.31-.21-.42-.17-1.2.42-2.39.87-3.61,1.33a1.21,1.21,0,0,0,.14.22c1.95,2,3.9,3.92,5.87,5.86a.82.82,0,0,0,.6.19C47.76,54.46,49.08,54.2,50.45,53.94Z" fill="#001e60"/></g></g></svg>