<svg xmlns="http://www.w3.org/2000/svg" viewBox="0 0 135.21 135.21"><g id="Camada_2" data-name="Camada 2"><g id="Cabeçalho"><circle cx="67.6" cy="67.6" r="67.6" fill="#fff"/><path d="M22.82,68.24c.89-1.31,1.69-2.7,2.68-3.93A82.48,82.48,0,0,1,47.93,44.49c6.61-3.88,13.66-6.16,21.34-5.85A38.13,38.13,0,0,1,86,43.43c9.24,5,16.85,12,23.55,20.21.83,1,1.61,2.09,2.39,3.16a2.93,2.93,0,0,1,0,4A88,88,0,0,1,96.54,87c-5.82,4.76-12.11,8.61-19.32,10.64-8.51,2.4-16.73,1.38-24.74-2.24C45.23,92.17,39,87.34,33.23,81.76a88.18,88.18,0,0,1-9.41-10.71,17,17,0,0,1-1-1.71Zm84,.67A85.34,85.34,0,0,0,95.37,56.59c-5.58-4.88-11.63-8.92-18.66-11.13A28.39,28.39,0,0,0,64,44.34a40.4,40.4,0,0,0-16.06,6.49,79.73,79.73,0,0,0-17,15.34c-.73.85-1.42,1.75-2.14,2.64,6.47,8.13,13.73,15.12,22.66,20a36.3,36.3,0,0,0,13.26,4.47c7.17.85,13.72-1.19,20-4.64A64.06,64.06,0,0,0,99.6,76.94C102.08,74.37,104.39,71.61,106.81,68.91Z" fill="#001e60"/><path d="M86.35,68.81C86.33,79.38,78,88,67.91,88S49.13,79.26,49.15,68.77,57.71,49.55,68,49.58,86.37,58.26,86.35,68.81Zm-5.25-.07A13.45,13.45,0,0,0,67.9,55.05,13.75,13.75,0,0,0,68,82.54C75.23,82.5,81.12,76.3,81.1,68.74Z" fill="#001e60"/><path d="M68,60.56A8.24,8.24,0,0,1,67.87,77,8.23,8.23,0,1,1,68,60.56Zm0,11a2.75,2.75,0,0,0,0-5.5,2.76,2.76,0,1,0,0,5.5Z" fill="#001e60"/></g></g></svg>