<svg xmlns="http://www.w3.org/2000/svg" viewBox="0 0 1114.71 322.42"><g id="Camada_2" data-name="Camada 2"><g id="Cabeçalho"><polygon points="210.89 158.15 105.45 158.15 0 158.15 9.55 146.53 0 134.9 105.45 134.9 210.89 134.9 220.45 146.53 210.89 158.15" fill="#00a3e0"/><polygon points="434.65 158.15 329.2 158.15 223.76 158.15 233.31 146.53 223.76 134.9 329.2 134.9 434.65 134.9 444.2 146.53 434.65 158.15" fill="#001e60"/><polygon points="658.41 158.15 552.96 158.15 447.51 158.15 457.06 146.53 447.51 134.9 552.96 134.9 658.41 134.9 667.95 146.53 658.41 158.15" fill="#00a3e0"/><polygon points="882.16 158.15 776.71 158.15 671.27 158.15 680.82 146.53 671.27 134.9 776.71 134.9 882.16 134.9 891.71 146.53 882.16 158.15" fill="#001e60"/><polygon points="1105.16 158.15 999.71 158.15 894.27 158.15 903.82 146.53 894.27 134.9 999.71 134.9 1105.16 134.9 1114.71 146.53 1105.16 158.15" fill="#00a3e0"/><text transform="translate(6.79 16.58)" font-size="16" font-family="Poppins-Regular, Poppins">É inaugurada a empresa<tspan x="0" y="24.84">Clean Air Ar Condiconado.</tspan></text><text transform="translate(58.7 116.41)" font-size="45.25" fill="#00a3e0" font-family="Poppins-ExtraBold, Poppins" font-weight="800">2010</text><text transform="translate(909.78 14.58)" font-size="16" font-family="Poppins-Regular, Poppins">Conquista de mais de 40<tspan x="0" y="24.84">clientes contratuais.</tspan></text><text transform="translate(953.27 116.41)" font-size="45.25" fill="#00a3e0" font-family="Poppins-ExtraBold, Poppins" font-weight="800">2022</text><text transform="translate(224.36 261.58)" font-size="16" font-family="Poppins-Regular, Poppins">Clean Air torna-se parte da <tspan x="0" y="24.84">rede de credenciados Carrier.</tspan></text><text transform="translate(282.99 210.41)" font-size="45.25" fill="#001e60" font-family="Poppins-ExtraBold, Poppins" font-weight="800">2016</text><text transform="translate(454.36 13.58)" font-size="16" font-family="Poppins-Regular, Poppins">Ampliação e renovação<tspan x="0" y="24.84">da sede em São Leopoldo.</tspan></text><text transform="translate(506.61 116.41)" font-size="45.25" fill="#00a3e0" font-family="Poppins-ExtraBold, Poppins" font-weight="800">2018</text><text transform="translate(686.83 263.58)" font-size="16" font-family="Poppins-Regular, Poppins">Quadro de funcionários <tspan x="0" y="24.84">triplicado desde a criação </tspan><tspan x="0" y="49.68">da empresa em 2010.</tspan></text><text transform="translate(730.41 211.41)" font-size="45.25" fill="#001e60" font-family="Poppins-ExtraBold, Poppins" font-weight="800">2021</text></g></g></svg>