<svg xmlns="http://www.w3.org/2000/svg" viewBox="0 0 275.26 1114.71"><g id="Camada_2" data-name="Camada 2"><g id="Cabeçalho"><polygon points="0 210.89 0 105.45 0 0 11.63 9.55 23.26 0 23.26 105.45 23.26 210.89 11.63 220.45 0 210.89" fill="#00a3e0"/><polygon points="0 434.65 0 329.2 0 223.76 11.63 233.31 23.26 223.76 23.26 329.2 23.26 434.65 11.63 444.2 0 434.65" fill="#001e60"/><polygon points="0 658.41 0 552.96 0 447.51 11.63 457.06 23.26 447.51 23.26 552.96 23.26 658.41 11.63 667.95 0 658.41" fill="#00a3e0"/><polygon points="0 882.16 0 776.71 0 671.27 11.63 680.82 23.26 671.27 23.26 776.71 23.26 882.16 11.63 891.71 0 882.16" fill="#001e60"/><polygon points="0 1105.16 0 999.71 0 894.27 11.63 903.82 23.26 894.27 23.26 999.71 23.26 1105.16 11.63 1114.71 0 1105.16" fill="#00a3e0"/><text transform="translate(41 129.04)" font-size="16" font-family="Poppins-Regular, Poppins">É inaugurada a empresa<tspan x="0" y="24.84">Clean Air Ar Condiconado.</tspan></text><text transform="translate(39.59 95.86)" font-size="45.25" fill="#00a3e0" font-family="Poppins-ExtraBold, Poppins" font-weight="800">2010</text><text transform="translate(41 352.73)" font-size="16" font-family="Poppins-Regular, Poppins">Clean Air torna-se parte da<tspan x="0" y="24.84">rede de credenciados Carrier.</tspan></text><text transform="translate(39.59 319.55)" font-size="45.25" fill="#001e60" font-family="Poppins-ExtraBold, Poppins" font-weight="800">2016</text><text transform="translate(41 576.23)" font-size="16" font-family="Poppins-Regular, Poppins">Ampliação e renovação<tspan x="0" y="24.84">da sede em São Leopoldo.</tspan></text><text transform="translate(39.59 543.05)" font-size="45.25" fill="#00a3e0" font-family="Poppins-ExtraBold, Poppins" font-weight="800">2018</text><text transform="translate(41 787.02)" font-size="16" font-family="Poppins-Regular, Poppins">Quadro de funcionários<tspan x="0" y="24.84">triplicado desde a criaçãoda </tspan><tspan x="0" y="49.68">empresa em 2010.</tspan></text><text transform="translate(39.59 753.84)" font-size="45.25" fill="#001e60" font-family="Poppins-ExtraBold, Poppins" font-weight="800">2021</text><text transform="translate(41 1022.73)" font-size="16" font-family="Poppins-Regular, Poppins">Conquista de mais de 40<tspan x="0" y="24.84">clientes contratuais.</tspan></text><text transform="translate(39.59 989.55)" font-size="45.25" fill="#00a3e0" font-family="Poppins-ExtraBold, Poppins" font-weight="800">2022</text></g></g></svg>