<svg xmlns="http://www.w3.org/2000/svg" viewBox="0 0 70.56 28.44"><g id="Camada_2" data-name="Camada 2"><g id="Cabeçalho"><path d="M35.28,28.44c19.49,0,35.28-6.37,35.28-14.22S54.77,0,35.28,0,0,6.37,0,14.22,15.8,28.44,35.28,28.44" style="fill:#213a8f"/><path d="M35.28,26.82c18.88,0,34.18-5.65,34.18-12.6S54.16,1.62,35.28,1.62,1.1,7.26,1.1,14.22s15.31,12.6,34.18,12.6" style="fill:#fff"/><path d="M35.28,26C53.89,26,69,20.71,69,14.22S53.89,2.46,35.28,2.46,1.58,7.72,1.58,14.22,16.67,26,35.28,26" style="fill:#213a8f"/><path d="M26.18,11.18h1.49l-1.8,5.43s-.31,1.15.49.4a4,4,0,0,0,.9-1.05h.44a7.66,7.66,0,0,1-1.83,2.17c-.81.43-1.88.37-1.89-.62,0-.61.15-.75.15-.75s-1.64,1.87-2.7,1.71-1.58-1-1.36-2.82a5.89,5.89,0,0,1,4.34-4.44,1.67,1.67,0,0,1,1.58.5" style="fill:#fff"/><path d="M25.46,13.1a10.56,10.56,0,0,1-1.36,2.83c-.45.57-2.73,2.6-2.27-.25l.22-.87a6.2,6.2,0,0,1,2.36-3c.81-.5,1.49.06,1.05,1.27" style="fill:#213a8f"/><path d="M17.8,17.69a5.62,5.62,0,0,1-3.69.69c-3.66-.81-3.73-4.84-1.24-7.57a8.22,8.22,0,0,1,7.82-2.49,1.11,1.11,0,0,1,.37,2,1,1,0,0,1-1.3-1.37,3.55,3.55,0,0,0-1.93-.06c-3.16.62-4.71,3.91-4.78,5.9-.1,3.16,2.18,2.93,3,2.79a4.54,4.54,0,0,0,2.56-1.13h.48A3.23,3.23,0,0,1,18,17.57" style="fill:#fff"/><path d="M30.52,18.22H29.13s1.13-3.75,1.55-5.09c.32-1-.13-1-.73-.35l-.62.79h-.42s1.49-2.34,2.67-2.42c0,0,1-.08.65,1.27L31.84,14l1.26-1.86a1.67,1.67,0,0,1,2-.87,1.16,1.16,0,0,1,.13,1.59c-.56.78-1.48.35-1.37-.61,0,0-1,.06-2.57,4" style="fill:#fff"/><path d="M37.44,18.25H36.05s1.13-3.75,1.55-5.09c.32-1-.13-1-.73-.35l-.62.79h-.42s1.49-2.34,2.67-2.42c0,0,1-.08.65,1.27l-.39,1.61L40,12.2a1.67,1.67,0,0,1,2-.87,1.16,1.16,0,0,1,.13,1.59c-.56.78-1.48.35-1.37-.61,0,0-1,.06-2.57,4" style="fill:#fff"/><path d="M44,11.32h1.46s-1.74,5.16-1.77,5.32-.34,1.37.5.64a5.91,5.91,0,0,0,1-1h.43s-1.19,2-2.61,2.29c-1.25.27-1.19-.83-1.19-.83a7.45,7.45,0,0,1,.39-1.57" style="fill:#fff"/><path d="M44.7,10.53A1.07,1.07,0,0,0,46,9.79a1,1,0,0,0-.36-1.43,1.07,1.07,0,0,0-1.28.74,1,1,0,0,0,.36,1.43" style="fill:#fff"/><path d="M55.69,18.35h-1.4s1.13-3.76,1.55-5.09c.33-1-.12-1-.73-.36l-.62.79h-.42s1.5-2.33,2.67-2.42c0,0,1-.08.65,1.27L57,14.16l1.25-1.86a1.66,1.66,0,0,1,2-.87A1.15,1.15,0,0,1,60.37,13c-.55.78-1.47.36-1.36-.61,0,0-1,.07-2.58,4" style="fill:#fff"/><path d="M46.84,14.44s1.34-3.76,5.12-3.29c0,0,2.55.9.78,2.95,0,0-.84,1.27-4.28,1.39,0,0-.9,2.92,2.36,1.93,0,0,1.18-.69,1.33-1h.4a4.2,4.2,0,0,1-3.19,2.33s-3.76.4-2.52-4.28" style="fill:#fff"/><path d="M48.61,14.87S49,12.08,51,11.71c0,0,1.24-.13.78,1.45a3.36,3.36,0,0,1-2.3,1.68" style="fill:#213a8f"/></g></g></svg>