<svg xmlns="http://www.w3.org/2000/svg" viewBox="0 0 474.71 345.02"><g id="Camada_2" data-name="Camada 2"><g id="E-mails"><g id="Icon"><rect x="3.5" y="84.79" width="459.36" height="256.73" style="fill:none;stroke:#00a3e0;stroke-miterlimit:10;stroke-width:7px"/><rect x="97" y="21.02" width="353" height="238" style="fill:#fff"/><path d="M75.88,40.53A20.94,20.94,0,0,0,76.69,38C81.18,16,100,.08,122.2.06Q275.4,0,428.59.08c25.09,0,46,20.87,46,45.92q.21,94.22,0,188.42c-.06,25-20.92,45.91-46,45.94q-153.39.17-306.78,0c-14.88,0-26.94-6.6-36.24-18.24-5.23-6.54-7.64-14.27-9.7-22.18ZM107,52.2V230.9c0,12.43,5.92,18.36,18.32,18.36H425.14c12.45,0,18.37-5.89,18.37-18.3V47.85c-1.2.86-2,1.37-2.75,2Q383.6,99.19,326.45,148.55a77.83,77.83,0,0,1-102.59-.17q-57.24-49.56-114.6-99c-.48-.42-1-.81-2.22-1.8Zm29.1-20.82c6,5.24,11.45,10,16.89,14.67q44.47,38.4,88.94,76.81c21.17,18.35,45.28,18.43,66.36.19Q359.24,79,410.23,35c1.17-1,2.33-2.05,4.14-3.65Z" style="fill:#001e60"/><path d="M200.22,187.12H138.4V217.8h61.82Z" style="fill:#001e60"/></g></g></g></svg>