<svg xmlns="http://www.w3.org/2000/svg" viewBox="0 0 71.58 28.74"><g id="Camada_2" data-name="Camada 2"><g id="Cabeçalho"><path d="M32.53,24.3,30.21,10.13h-3l.28,2.18A16.24,16.24,0,0,1,24.17,22l-1.65-11.9h-3c-1,10.42-4.44,13-9.35,14.24,5.76.26,8.76-2.79,10.34-6.7l1,6.8a11.48,11.48,0,0,1-5.53,2C9,27.18,2,23,0,16.32A14,14,0,0,0,14.07,28.74,14,14,0,0,0,28.07,17L29,24.3Zm39.05-7.19c-.22-2.36-2.06-3.29-4.3-3.21A4.47,4.47,0,0,0,63,17.06l1.17.35c1-2.53,5.12-2.41,5.2.19V18a4.54,4.54,0,0,0-2.28-.37c-2.59,0-4.12,1.54-4.23,3.43s1.22,3.44,3.85,3.44a3.6,3.6,0,0,0,2.66-.91v.75h2.23Zm-4,2.16a3.07,3.07,0,0,1,1.75.4v2.56a3.58,3.58,0,0,1-1.91.55c-1.38,0-2.34-.79-2.34-1.76S66.22,19.27,67.6,19.27ZM56.05,13.92a5.15,5.15,0,0,1,5.23,5.34,3.86,3.86,0,0,1,0,.6H53.56c.48,1.67,1.71,2.43,3.77,2.37A3,3,0,0,0,59.9,21h1.18c-.42,2-1.8,3.48-4.61,3.51-3.51,0-5.65-2.26-5.65-5.22A5.28,5.28,0,0,1,56.05,13.92Zm.14,2A2.5,2.5,0,0,1,58.7,18h-5A2.49,2.49,0,0,1,56.19,15.93ZM2.48,18.83A11.14,11.14,0,0,1,2,8.32,13.5,13.5,0,0,1,10.93.49,13.89,13.89,0,0,1,27.67,9,14.09,14.09,0,0,0,14.88,2.83,13.32,13.32,0,0,0,2.48,18.83ZM44.35,16a2.92,2.92,0,0,1,2.18,1v4.36a2.92,2.92,0,0,1-2.18,1,3.18,3.18,0,0,1,0-6.34Zm2.18-5.91h2.62V24.3H46.53v-1a5,5,0,0,1-3.24,1.27,4.81,4.81,0,0,1-4.59-5.37c.17-3,2.21-5.37,5.22-5.37a4.38,4.38,0,0,1,2.61.85Zm-12.37,3.8h2.59V24.3H34.16Zm0-3.8h2.59v2.59H34.16Z" style="fill:#009ee2;fill-rule:evenodd"/></g></g></svg>