<svg xmlns="http://www.w3.org/2000/svg" viewBox="0 0 135.21 135.21"><g id="Camada_2" data-name="Camada 2"><g id="Serviços"><circle cx="67.6" cy="67.6" r="67.6" style="fill:#001e60"/><path d="M24.55,87.2l4.82.46a22.92,22.92,0,0,0,2.41,5.73l-3.07,3.7a1.47,1.47,0,0,0,.09,2l5.57,5.57a1.45,1.45,0,0,0,2,.09L40,101.63a23.42,23.42,0,0,0,5.72,2.42l.47,4.81a1.43,1.43,0,0,0,1.44,1.29h7.89A1.42,1.42,0,0,0,57,108.86l.47-4.82a22.92,22.92,0,0,0,5.73-2.41l3.7,3.07a1.45,1.45,0,0,0,2-.09L74.41,99a1.46,1.46,0,0,0,.09-2l-3.07-3.71a23.23,23.23,0,0,0,2.41-5.72l4.77-.47a1.45,1.45,0,0,0,1.31-1.44V77.86a1.45,1.45,0,0,0-1.31-1.44L73.78,76a22.58,22.58,0,0,0-2.42-5.73l3.07-3.7a1.44,1.44,0,0,0-.09-1.94L68.85,59a1.46,1.46,0,0,0-2-.09L63.18,62a23.25,23.25,0,0,0-5.72-2.42L57,54.77a1.43,1.43,0,0,0-1.44-1.29H47.66a1.43,1.43,0,0,0-1.44,1.29l-.47,4.81A22.92,22.92,0,0,0,40,62l-3.7-3.07a1.45,1.45,0,0,0-2,.09l-5.56,5.57a1.44,1.44,0,0,0-.1,1.94l3.08,3.71A23,23,0,0,0,29.37,76l-4.82.47a1.44,1.44,0,0,0-1.3,1.44v7.89a1.45,1.45,0,0,0,1.3,1.45Zm1.6-8,4.53-.44A1.43,1.43,0,0,0,32,77.6a20.29,20.29,0,0,1,2.83-6.71,1.46,1.46,0,0,0-.1-1.71l-2.9-3.49L35.49,62,39,64.88a1.44,1.44,0,0,0,1.73.09,19.76,19.76,0,0,1,6.69-2.82,1.43,1.43,0,0,0,1.14-1.25L49,56.38h5.27l.44,4.52a1.43,1.43,0,0,0,1.13,1.26A20.29,20.29,0,0,1,62.52,65a1.44,1.44,0,0,0,1.71-.11L67.72,62l3.64,3.69-2.9,3.51a1.46,1.46,0,0,0-.09,1.72,19.56,19.56,0,0,1,2.82,6.69,1.47,1.47,0,0,0,1.29,1.14l4.55.44v5.26l-4.48.44A1.45,1.45,0,0,0,71.27,86a20,20,0,0,1-2.84,6.71,1.46,1.46,0,0,0,.1,1.71l2.9,3.5-3.7,3.7-3.5-2.89a1.44,1.44,0,0,0-1.73-.09,19.79,19.79,0,0,1-6.69,2.82,1.41,1.41,0,0,0-1.13,1.26l-.44,4.53H49l-.43-4.53a1.43,1.43,0,0,0-1.14-1.27,20.29,20.29,0,0,1-6.71-2.83,1.46,1.46,0,0,0-1.71.1l-3.49,2.9-3.71-3.7,2.9-3.5a1.46,1.46,0,0,0,.09-1.73A19.4,19.4,0,0,1,32,86a1.44,1.44,0,0,0-1.27-1.13l-4.53-.44Z" style="fill:#fff"/><path d="M51.61,98.62A16.82,16.82,0,1,0,34.79,81.81,16.78,16.78,0,0,0,51.61,98.62Zm0-30.73A13.92,13.92,0,1,1,37.69,81.81,13.92,13.92,0,0,1,51.61,67.89Z" style="fill:#fff"/><path d="M106,55.15a17.47,17.47,0,0,0,1.45-3.73l3.16-.38A1.53,1.53,0,0,0,112,49.49l-.2-5.76a1.54,1.54,0,0,0-1.44-1.48L107.09,42a17.61,17.61,0,0,0-1.69-3.66l2-2.5a1.52,1.52,0,0,0-.16-2l-4.18-4a1.54,1.54,0,0,0-2.07-.06l-2.41,2.1a17.48,17.48,0,0,0-3.77-1.48l-.42-3.19a1.54,1.54,0,0,0-1.57-1.34L87,26a1.51,1.51,0,0,0-1.48,1.42l-.2,3.2a17.12,17.12,0,0,0-3.68,1.65l-2.53-2a1.55,1.55,0,0,0-2.06.15l-4,4.15a1.52,1.52,0,0,0,0,2.06l2.13,2.41a17.19,17.19,0,0,0-1.45,3.72l-3.21.39a1.52,1.52,0,0,0-1.34,1.55l.2,5.75A1.55,1.55,0,0,0,70.82,52l3.23.23a17.11,17.11,0,0,0,1.69,3.66l-2,2.5a1.53,1.53,0,0,0,.17,2l4.22,4a1.54,1.54,0,0,0,2.07,0l2.41-2.09a17.45,17.45,0,0,0,3.77,1.47L86.84,67a1.56,1.56,0,0,0,1.57,1.35l5.8-.14a1.51,1.51,0,0,0,1.48-1.41l.2-3.21a17.08,17.08,0,0,0,3.68-1.64l2.53,2a1.55,1.55,0,0,0,2.06-.14l4-4.16a1.51,1.51,0,0,0,0-2Zm-3.13,5.51-2.3-1.79a1.55,1.55,0,0,0-1.84,0,14,14,0,0,1-4.68,2.1,1.5,1.5,0,0,0-1.16,1.37l-.19,2.9-3,.07-.37-2.89a1.55,1.55,0,0,0-1.25-1.31,14.67,14.67,0,0,1-4.84-1.89,1.53,1.53,0,0,0-1.81.15l-2.18,1.89-2.18-2.05,1.78-2.27a1.53,1.53,0,0,0,0-1.82,13.72,13.72,0,0,1-2.16-4.67,1.57,1.57,0,0,0-1.4-1.16L72.4,49l-.1-3,2.9-.35a1.51,1.51,0,0,0,1.31-1.22,14,14,0,0,1,1.86-4.79,1.52,1.52,0,0,0-.17-1.8l-1.93-2.17,2-2.15,2.3,1.78a1.53,1.53,0,0,0,1.83,0,13.77,13.77,0,0,1,4.69-2.09,1.53,1.53,0,0,0,1.16-1.37l.18-2.9,3-.07.38,2.88a1.55,1.55,0,0,0,1.25,1.32A14.41,14.41,0,0,1,98,35.05a1.55,1.55,0,0,0,1.8-.15L101.93,33l2.15,2-1.78,2.27a1.52,1.52,0,0,0,0,1.82,13.9,13.9,0,0,1,2.16,4.67,1.57,1.57,0,0,0,1.4,1.17l2.92.21.1,3-2.85.34a1.52,1.52,0,0,0-1.31,1.23,14.22,14.22,0,0,1-1.86,4.79,1.51,1.51,0,0,0,.17,1.79l1.93,2.18Z" style="fill:#fff"/><path d="M93.58,36.87a11.15,11.15,0,0,0-13,5.33,10.87,10.87,0,0,0,2.77,13.63,11.2,11.2,0,0,0,14.07,0,10.91,10.91,0,0,0-3.84-18.94Zm4.87,12.89A8.45,8.45,0,0,1,82,48.18a8.34,8.34,0,0,1,5.93-8.8,8.48,8.48,0,0,1,9.9,4,8.2,8.2,0,0,1,.64,6.34Z" style="fill:#fff"/></g></g></svg>