<svg xmlns="http://www.w3.org/2000/svg" xmlns:xlink="http://www.w3.org/1999/xlink" viewBox="0 0 135.21 135.21"><defs><clipPath id="clip-path"><rect x="40.05" y="26.16" width="55.11" height="82.9" style="fill:none"/></clipPath></defs><g id="Camada_2" data-name="Camada 2"><g id="Serviços"><circle cx="67.6" cy="67.6" r="67.6" style="fill:#001e60"/><path d="M75.56,82.05h4a1.21,1.21,0,1,0,0-2.43h-4a1.21,1.21,0,1,0,0,2.43Z" style="fill:#fff"/><path d="M75.56,89h4a1.22,1.22,0,0,0,0-2.43h-4a1.22,1.22,0,0,0,0,2.43Z" style="fill:#fff"/><path d="M75.56,95.77h4a1.21,1.21,0,1,0,0-2.43h-4a1.22,1.22,0,0,0,0,2.43Z" style="fill:#fff"/><path d="M52.21,85.12A1.22,1.22,0,0,0,51,86.33V99.92a1.22,1.22,0,0,0,2.44,0V86.33a1.22,1.22,0,0,0-1.22-1.21Z" style="fill:#fff"/><g style="clip-path:url(#clip-path)"><path d="M46.94,85.12a1.22,1.22,0,0,0-1.22,1.21V99.92a1.21,1.21,0,0,0,2.43,0V86.33a1.21,1.21,0,0,0-1.21-1.21Z" style="fill:#fff"/><path d="M58.72,70.62a3.54,3.54,0,0,0-3.52-3.54H53V40.6L54.71,37a1.25,1.25,0,0,0,.07-.83l-2.31-8.79a1.23,1.23,0,0,0-1.19-.91H47.6a1.22,1.22,0,0,0-1.18.91l-2.3,8.78a1.28,1.28,0,0,0,.06.84L45.9,40.6V67.08H43.68a3.54,3.54,0,0,0-1,6.91l-2.28,8a1.3,1.3,0,0,0,0,.34V102a6.93,6.93,0,0,0,6.83,7h4.54a7,7,0,0,0,6.86-7V82.34a1.23,1.23,0,0,0,0-.33l-2.3-8a3.55,3.55,0,0,0,2.48-3.37ZM48.54,28.88h1.81l1.95,7.45L50.67,39.8a1.54,1.54,0,0,0-.09.52V67.08H48.33V40.32a1.16,1.16,0,0,0-.11-.52l-1.64-3.47ZM56.14,102a4.51,4.51,0,0,1-4.43,4.53H47.17a4.49,4.49,0,0,1-4.4-4.53V82.51l2.35-8.31h8.64l2.38,8.31Zm-.94-30.2H43.68a1.13,1.13,0,0,1,0-2.26H55.2a1.13,1.13,0,0,1,0,2.26Z" style="fill:#fff"/><path d="M77.85,108.85A6.78,6.78,0,0,0,84.62,102V57.71A17.32,17.32,0,0,0,95,41.9,17.13,17.13,0,0,0,85.5,26.49a1.21,1.21,0,0,0-1.75,1.09V36.1L77.89,40l-6-4.18,0-8.25a1.22,1.22,0,0,0-1.76-1.09A17.11,17.11,0,0,0,60.65,41.9,17.32,17.32,0,0,0,71.08,57.71V102a6.78,6.78,0,0,0,6.77,6.81ZM63.05,41.9A14.7,14.7,0,0,1,69.5,29.69l0,6.76a1.19,1.19,0,0,0,.52,1l7.18,5a1.22,1.22,0,0,0,1.37,0l7.09-4.73a1.23,1.23,0,0,0,.55-1v-7A14.79,14.79,0,0,1,83,55.75a1.25,1.25,0,0,0-.8,1.14V102a4.34,4.34,0,0,1-8.68,0V56.89a1.23,1.23,0,0,0-.82-1.14A14.88,14.88,0,0,1,63.05,41.9Z" style="fill:#fff"/></g></g></g></svg>