<svg xmlns="http://www.w3.org/2000/svg" viewBox="0 0 135.21 135.21"><g id="Camada_2" data-name="Camada 2"><g id="Serviços"><circle cx="67.6" cy="67.6" r="67.6" style="fill:#001e60"/><path d="M63.58,109.51c-.76-.21-1.53-.38-2.26-.65A10.24,10.24,0,0,1,56,104.5a1.19,1.19,0,0,0-.69-.55c-3.62-.4-5.18-2.87-3.88-6.25A4.25,4.25,0,0,1,50,92.1a4.24,4.24,0,0,1-1.89-3.76,3.75,3.75,0,0,1,2-3.29,1.17,1.17,0,0,0,.66-1.43,25.48,25.48,0,0,0-5.86-13.87,27.32,27.32,0,0,1-6.11-12.57A26.56,26.56,0,0,1,59,26.36a32.47,32.47,0,0,1,10.17-.48,3.13,3.13,0,0,1,2.76,2.53c.18.85.27,1.72.47,2.57a1.11,1.11,0,0,0,.55.64c2,.88,4.1,1.74,6.16,2.57a1.13,1.13,0,0,0,.85-.06c.72-.45,1.38-1,2.08-1.45a3,3,0,0,1,3.93.2c1.35,1.23,2.65,2.52,3.87,3.87a3.08,3.08,0,0,1,.17,4c-.44.66-.9,1.3-1.38,1.93a.82.82,0,0,0-.09,1c.88,2,1.68,4,2.54,6a1.21,1.21,0,0,0,.67.63c.79.2,1.61.28,2.41.43a3.06,3.06,0,0,1,2.67,2.89c.09,1.87.09,3.76,0,5.63a3,3,0,0,1-2.46,2.79c-.82.19-1.66.33-2.5.44-.47,0-.65.24-.83.7-.79,2-1.64,4-2.51,6a.78.78,0,0,0,.07.94c.5.64,1,1.31,1.43,2a3.09,3.09,0,0,1-.26,4.06q-1.8,2-3.76,3.76a3.1,3.1,0,0,1-4,.22c-.84-.56-1.65-1.16-2.24-1.57-2.43.93-4.69,1.78-6.94,2.66a.79.79,0,0,0-.42.49c-.17.82-.29,1.65-.45,2.6h3.57a23.43,23.43,0,0,1,2.37,0,3.91,3.91,0,0,1,3.52,2.86,4,4,0,0,1-1.19,4.4l-.46.42c.85,2.6.5,4-1.36,5.55a12.47,12.47,0,0,1,.4,1.89,4.16,4.16,0,0,1-4.08,4.41,1.19,1.19,0,0,0-.84.41,10.41,10.41,0,0,1-7.48,5,1.13,1.13,0,0,0-.21.12Zm-.17-25.19V28.5c-1.13.17-2.18.29-3.22.48C47.6,31.3,39,44.21,41.56,56.75a25.4,25.4,0,0,0,5.63,11.37,27.21,27.21,0,0,1,5.93,12.5c.24,1.22.39,2.45.58,3.7Zm2.9,0c.77,0,1.45,0,2.12,0s.78-.27.85-.78c.15-1.08.36-2.15.51-3.23a1.6,1.6,0,0,1,1.37-1.5,21.75,21.75,0,0,0,7.43-3.07,1.6,1.6,0,0,1,2,.06c.9.67,1.83,1.29,2.72,2a.7.7,0,0,0,1.07-.07q1.55-1.56,3.12-3.12a.65.65,0,0,0,0-1c-.66-.9-1.28-1.83-2-2.72a1.63,1.63,0,0,1-.07-2.1,21.39,21.39,0,0,0,3-7.35,1.66,1.66,0,0,1,1.55-1.43c1.08-.15,2.15-.35,3.23-.5.45-.07.7-.25.7-.72,0-1.5,0-3,0-4.5,0-.51-.27-.7-.74-.77-1.11-.17-2.2-.38-3.31-.54a1.5,1.5,0,0,1-1.4-1.26,22.46,22.46,0,0,0-3.15-7.58,1.57,1.57,0,0,1,.09-2c.66-.9,1.29-1.83,2-2.72a.7.7,0,0,0,0-1.07q-1.58-1.55-3.13-3.12a.69.69,0,0,0-1.06,0c-.87.66-1.78,1.26-2.65,1.92a1.63,1.63,0,0,1-2.1.09,22.26,22.26,0,0,0-7.43-3.08,1.59,1.59,0,0,1-1.36-1.5c-.14-1-.3-2.11-.52-3.14-.07-.3-.37-.72-.62-.77a18.9,18.9,0,0,0-2.32-.2v8.32C78,36.73,85.89,46.88,85.83,56.28a19.28,19.28,0,0,1-4.19,12.21A19.51,19.51,0,0,1,66.31,76Zm0-44.63v4.18l.67.05c5.15.48,8.92,3,10.88,7.81A12.57,12.57,0,0,1,67.1,69c-.33,0-.83-.16-.83.48v3.77c6-.25,10.82-2.65,14-7.68a16,16,0,0,0,.18-17.92C77.31,42.41,72.45,39.92,66.32,39.65Zm0,7V66.2a9.46,9.46,0,0,0,8.05-4.33,9.31,9.31,0,0,0,.35-10.29C72.92,48.38,70,46.85,66.32,46.64ZM64.9,87.16H53a4.57,4.57,0,0,0-1,.07,1.37,1.37,0,0,0,0,2.65A4,4,0,0,0,53,90H76.83a5.26,5.26,0,0,0,.89-.06,1.33,1.33,0,0,0,1.09-1.5c-.08-.81-.66-1.24-1.72-1.24Zm0,5.6h-11a1.4,1.4,0,0,0-1.56,1.32,1.44,1.44,0,0,0,1.54,1.45H75.43a4,4,0,0,0,1-.1,1.26,1.26,0,0,0,1-1.37,1.29,1.29,0,0,0-1.16-1.28,7.4,7.4,0,0,0-.82,0Zm0,5.58H62.78c-2.51,0-5,0-7.52,0a1.38,1.38,0,0,0-1.48,1.82,1.51,1.51,0,0,0,1.63,1h19a2.08,2.08,0,0,0,.79-.13,1.37,1.37,0,0,0-.29-2.62,5.38,5.38,0,0,0-.9,0ZM59.19,104c2.9,3.79,8.92,3.41,11.34,0Z" style="fill:#fff"/><path d="M44.22,48.9c.63-1.67,1.14-3.41,1.93-5A20.62,20.62,0,0,1,56.69,34c1-.45,1.79-.23,2.15.59s0,1.51-1,2A18.08,18.08,0,0,0,47.2,49.09c-.25,1-.86,1.47-1.65,1.34A1.73,1.73,0,0,1,44.22,48.9Z" style="fill:#fff"/></g></g></svg>