<svg xmlns="http://www.w3.org/2000/svg" viewBox="0 0 135.21 135.21"><g id="Camada_2" data-name="Camada 2"><g id="Serviços"><circle cx="67.6" cy="67.6" r="67.6" style="fill:#001e60"/><path d="M99.17,34.75c-.46.94-1.24.86-2.08.84V65.93c0,1.51-.31,1.87-1.6,1.87H54.8c-1.3,0-1.59-.34-1.59-1.88V35.58c-.37,0-.67,0-1,0-.71-.07-1.1-.48-1.11-1.33,0-2.42,0-4.84,0-7.26a1.37,1.37,0,0,1,1-1.39h47ZM95,65.27V35.63H55.34V65.27ZM53.25,33.05h43.8V28.21H53.25Z" style="fill:#fff"/><path d="M83.56,89.43l2.92-2c3.08-2.11,6.15-4.23,9.23-6.31,2.85-1.92,6.16-.49,7.1,3a6,6,0,0,1-2.32,6.63c-2.45,1.7-4.91,3.37-7.36,5q-9.47,6.48-18.92,13a4,4,0,0,1-3.12.72q-8.74-1.59-17.5-3.18c-4-.71-7.92-1.56-11.9-2.06a67.8,67.8,0,0,0-7.68-.13c-1.42,0-1.75-.39-1.75-2.07,0-4.71,0-9.42,0-14.13,0-1.93-.45-3.92.34-5.8,1.56-.86,3.22-.21,4.83-.39a32.07,32.07,0,0,0,3.92-.35,19.3,19.3,0,0,0,4.47-1.61c5.79-3,11.64-3.24,17.35-.08a33.58,33.58,0,0,0,10.16,3.53c2.14.41,4.28.83,6.4,1.35,1.84.45,3,1.85,3.61,4,0,.13,0,.26.08.4S83.5,89.19,83.56,89.43ZM34.64,101.35h1.24a48,48,0,0,1,8.29.42c9,1.7,18,3.29,27,4.94a2.47,2.47,0,0,0,2-.43Q86.08,97.41,99,88.56a7.13,7.13,0,0,0,.75-.58,3.11,3.11,0,0,0,.75-3.11A2.28,2.28,0,0,0,98.29,83a3.4,3.4,0,0,0-1.54.61Q90,88.21,83.33,92.83a5.21,5.21,0,0,0-1,.93,4.22,4.22,0,0,1-4,1.84L63,93a1.4,1.4,0,0,1-1.23-1.62,1.27,1.27,0,0,1,1.58-1.15l7.8,1.37c2.47.43,4.93.88,7.4,1.23a2.39,2.39,0,0,0,2.59-2.32,2.71,2.71,0,0,0-2-3.13c-2.27-.51-4.53-1-6.81-1.44a29.9,29.9,0,0,1-9.63-3.36c-5.21-3-10.54-2.93-15.85-.16a20.74,20.74,0,0,1-2.64,1.19,22,22,0,0,1-8,1c-.55,0-1.09,0-1.66,0Z" style="fill:#fff"/><path d="M75.14,42.08c1.45,0,2.89,0,4.34,0a3.28,3.28,0,0,1,2.9,2.9,3.87,3.87,0,0,1-1.7,4.1,3,3,0,0,1-1.35.38c-2.79,0-5.58.05-8.37,0a3.37,3.37,0,0,1-3.11-3.4,3.64,3.64,0,0,1,2.41-3.9,8,8,0,0,1,1.83-.11h3Zm0,2.46H71.23a1.24,1.24,0,1,0,0,2.47q3.93,0,7.88,0a1.14,1.14,0,0,0,1.25-1.23,1.12,1.12,0,0,0-1.23-1.23Z" style="fill:#fff"/></g></g></svg>