<svg xmlns="http://www.w3.org/2000/svg" xmlns:xlink="http://www.w3.org/1999/xlink" viewBox="0 0 87.1 87.1"><defs><clipPath id="clip-path"><rect width="87.1" height="87.1" fill="none"/></clipPath></defs><g id="Camada_2" data-name="Camada 2"><g id="Redes_Sociais" data-name="Redes Sociais"><g id="Whats"><g clip-path="url(#clip-path)"><path d="M74.47,12.52A44.07,44.07,0,0,0,43.71,0C10.43,0-10.46,36.06,6.16,64.73L0,87.1l23-6C33,86.51,41.21,86,43.73,86.35c38.59,0,57.8-46.68,30.68-73.69Z" fill="#eceff1"/><path d="M43.79,78.94h-.08a36.64,36.64,0,0,1-19.65-5.78L10.45,76.69,14.1,63.46l-.87-1.36A35.85,35.85,0,0,1,7.73,43c0-31.91,39-47.87,61.56-25.31C91.8,40,76,78.94,43.79,78.94Z" fill="#4caf50"/></g><path d="M63.53,51.92l0,.27c-1.09-.54-6.41-3.14-7.4-3.5-2.23-.83-1.6-.13-5.87,4.76-.64.71-1.27.76-2.34.27a29.42,29.42,0,0,1-8.73-5.39,32.85,32.85,0,0,1-6-7.51c-1.06-1.84,1.16-2.1,3.19-5.93a2,2,0,0,0-.09-1.9c-.28-.55-2.44-5.88-3.35-8s-1.77-1.85-2.44-1.85c-2.09-.18-3.62-.15-5,1.25-5.86,6.44-4.38,13.08.63,20.14C36,57.41,41.22,59.79,50.81,63.08a15,15,0,0,0,6.82.44c2.09-.33,6.42-2.62,7.32-5.18s.93-4.68.65-5.17-1-.76-2.07-1.25Z" fill="#fafafa"/></g></g></g></svg>