<svg xmlns="http://www.w3.org/2000/svg" viewBox="0 0 86.36 86.36"><g id="Camada_2" data-name="Camada 2"><g id="Redes_Sociais" data-name="Redes Sociais"><path d="M86.36,43.18A43.18,43.18,0,1,0,43.18,86.36,43.18,43.18,0,0,0,86.36,43.18Z" fill="#00a3e0"/><path d="M62.35,21.57A2.43,2.43,0,0,1,64.79,24V62.35a2.44,2.44,0,0,1-2.44,2.44H24a2.43,2.43,0,0,1-2.43-2.44V24A2.43,2.43,0,0,1,24,21.57H62.35m0-4.67H24A7.1,7.1,0,0,0,16.9,24V62.35A7.1,7.1,0,0,0,24,69.46H62.35a7.11,7.11,0,0,0,7.11-7.11V24a7.1,7.1,0,0,0-7.11-7.1Z" fill="#fff"/><path d="M43.18,57.07A13.89,13.89,0,1,1,57.07,43.18,13.9,13.9,0,0,1,43.18,57.07Zm0-23.1a9.21,9.21,0,1,0,9.21,9.21A9.22,9.22,0,0,0,43.18,34Z" fill="#fff"/><circle cx="58.28" cy="28.07" r="3.56" fill="#fff"/></g></g></svg>