<svg xmlns="http://www.w3.org/2000/svg" viewBox="0 0 135.21 135.21"><g id="Camada_2" data-name="Camada 2"><g id="Inicial"><circle cx="67.6" cy="67.6" r="67.6" fill="#001e60"/><path d="M99.46,67.64v38.91c0,1.94-.6,2.55-2.53,2.55q-25.52,0-51,0c-6.06,0-10.14-4.11-10.15-10.18q0-31.4,0-62.8a9.62,9.62,0,0,1,8-9.88,11.93,11.93,0,0,1,2.07-.13h51c1.94,0,2.55.61,2.55,2.53ZM47.39,30V89.75H95.55V30ZM95.57,93.67H45.07a5.79,5.79,0,0,0,.48,11.57q24.66,0,49.32,0c.23,0,.45,0,.67-.06v-3.78H77.11c-.3,0-.61,0-.91,0a1.93,1.93,0,0,1,0-3.85,6.88,6.88,0,0,1,.91,0H94.51c.35,0,.69,0,1.06-.05Zm-56-2.08,3.83-1.74V30.36a3.86,3.86,0,0,0-.56.2,6,6,0,0,0-3.28,5.7q0,27.23,0,54.45Z" fill="#fff"/><path d="M71.58,39.59H89.14c2,0,2.58.62,2.58,2.61q0,8.05,0,16.11c0,1.92-.62,2.55-2.55,2.55H53.79c-1.95,0-2.61-.66-2.61-2.61q0-8.05,0-16.11c0-1.88.68-2.55,2.57-2.55ZM87.82,56.92V43.55H55.12V56.92Z" fill="#fff"/></g></g></svg>