<svg xmlns="http://www.w3.org/2000/svg" viewBox="0 0 135.21 135.21"><g id="Camada_2" data-name="Camada 2"><g id="Inicial"><circle cx="67.6" cy="67.6" r="67.6" fill="#001e60"/><path d="M109.1,65V70.2c0,.2-.1.41-.14.62-.33,2.13-.53,4.29-1,6.38a41.62,41.62,0,0,1-33.2,31.27c-1.51.26-3,.43-4.55.63H65l-.7-.14c-1.76-.25-3.54-.4-5.28-.77A40.33,40.33,0,0,1,35.94,94.32c-8.37-10.06-11.43-21.64-9-34.51A39.88,39.88,0,0,1,42.48,34.66a40.33,40.33,0,0,1,32.06-8,39.9,39.9,0,0,1,20.7,10,40.85,40.85,0,0,1,13.22,23.74C108.73,62,108.89,63.49,109.1,65Zm-4.86,2.6a36.63,36.63,0,1,0-36.66,36.63A36.7,36.7,0,0,0,104.24,67.61Z" fill="#fff"/><path d="M65.18,60.3c0-2.35,0-4.7,0-7a2.44,2.44,0,1,1,4.86,0c0,4.21,0,8.43,0,12.64a1.87,1.87,0,0,0,.49,1.18q6.49,6.56,13,13.07a2.72,2.72,0,0,1,1,2.2,2.42,2.42,0,0,1-3.83,1.81,5.34,5.34,0,0,1-.66-.6c-4.61-4.6-9.2-9.21-13.82-13.79A3.53,3.53,0,0,1,65.16,67C65.21,64.79,65.18,62.54,65.18,60.3Z" fill="#fff"/><path d="M70,40.86c0,.81,0,1.62,0,2.43a2.43,2.43,0,0,1-4.85,0c0-1.64,0-3.29,0-4.93a2.42,2.42,0,0,1,4.84,0C70.06,39.19,70,40,70,40.86Z" fill="#fff"/><path d="M40.86,70c-.81,0-1.62,0-2.43,0a2.43,2.43,0,0,1,0-4.85c1.65,0,3.29,0,4.93,0a2.43,2.43,0,0,1,0,4.85C42.53,70.06,41.69,70,40.86,70Z" fill="#fff"/><path d="M94.34,70c-.8,0-1.61,0-2.42,0a2.43,2.43,0,0,1,0-4.85c1.65,0,3.29,0,4.93,0a2.43,2.43,0,0,1,0,4.85C96,70.06,95.18,70,94.34,70Z" fill="#fff"/><path d="M70,94.41c0,.78,0,1.56,0,2.34a2.43,2.43,0,1,1-4.85,0c0-1.62,0-3.23,0-4.85a2.43,2.43,0,0,1,4.85,0C70.06,92.74,70,93.57,70,94.41Z" fill="#fff"/><path d="M88.26,90.65a2.44,2.44,0,0,1-2.46-2.39,2.48,2.48,0,0,1,2.42-2.46,2.42,2.42,0,0,1,2.43,2.42A2.38,2.38,0,0,1,88.26,90.65Z" fill="#fff"/><path d="M44.57,46.93A2.37,2.37,0,0,1,47,44.56,2.41,2.41,0,0,1,49.41,47a2.47,2.47,0,0,1-2.47,2.4A2.4,2.4,0,0,1,44.57,46.93Z" fill="#fff"/><path d="M90.65,47a2.44,2.44,0,0,1-2.42,2.44A2.5,2.5,0,0,1,85.8,47a2.44,2.44,0,0,1,2.44-2.41A2.39,2.39,0,0,1,90.65,47Z" fill="#fff"/><path d="M47,90.65a2.41,2.41,0,0,1-2.43-2.41A2.44,2.44,0,0,1,47,85.8a2.48,2.48,0,0,1,2.44,2.43A2.43,2.43,0,0,1,47,90.65Z" fill="#fff"/></g></g></svg>