<svg xmlns="http://www.w3.org/2000/svg" viewBox="0 0 135.21 135.21"><g id="Camada_2" data-name="Camada 2"><g id="Inicial"><circle cx="67.6" cy="67.6" r="67.6" fill="#001e60"/><path d="M57.78,98.87c.7.64,1.31,1.16,1.87,1.73a1.47,1.47,0,0,1,0,2.36q-5,5.07-10.12,10.11c-.87.87-1.6.81-2.55-.13Q41,107,35.1,101.05q-6.34-6.33-12.68-12.68c-1.14-1.13-1.14-1.77,0-2.89l9.65-9.65c1.09-1.09,1.74-1.09,2.83,0,.5.5,1,1,1.52,1.56.32-.29.57-.51.8-.75,3.2-3.19,6.41-6.38,9.58-9.6A2.73,2.73,0,0,1,49,66.09c1.23.06,2.46,0,3.8,0V57.62c0-1.4.51-1.91,1.89-1.91,2.81,0,5.62,0,8.46-.07a18.29,18.29,0,0,1-8.91-9.31,17.52,17.52,0,0,1-.47-12.78,17.84,17.84,0,0,1,34,.68,18.09,18.09,0,0,1-9.67,21.42c.41,0,.67.05.92.05H86.4c1.6,0,2.06.46,2.06,2q0,7,0,14v1.08c.36-.33.6-.53.83-.76,4.84-4.84,9.66-9.7,14.51-14.52a5.71,5.71,0,1,1,8.07,8.07L94.33,84.19C91.88,86.78,89.43,89.35,87,92a2.68,2.68,0,0,1-2.12.92c-6.65,0-13.31,0-20,0a2.44,2.44,0,0,0-1.92.82C61.34,95.37,59.63,97,57.78,98.87Zm-1.91-2.31c.16-.15.39-.35.6-.56,1.75-1.75,3.52-3.49,5.25-5.27a2.62,2.62,0,0,1,2.05-.85q10.12,0,20.25,0a2,2,0,0,0,1.28-.48q12.32-13,24.58-26a2.73,2.73,0,1,0-3.9-3.8Q97.18,68.4,88.4,77.23a2.44,2.44,0,0,1-1.88.78c-7.15,0-14.3,0-21.45,0-.65,0-1.31,0-1.95,0a1.45,1.45,0,0,1-1.4-1.46A1.47,1.47,0,0,1,63.1,75a6.06,6.06,0,0,1,.74,0c3.16,0,6.32,0,9.47,0a4.18,4.18,0,0,0,1.93-.51,2.79,2.79,0,0,0,1.21-3.23,3,3,0,0,0-3-2.18c-8,0-15.92,0-23.88,0a1.74,1.74,0,0,0-1.1.49c-3.15,3.1-6.28,6.24-9.41,9.38a5.37,5.37,0,0,0-.36.43C44.46,85.14,50.15,90.83,55.87,96.56Zm-.1-57.25A14.86,14.86,0,1,0,70.72,24.49,14.86,14.86,0,0,0,55.77,39.31ZM25.47,86.87l22.87,22.87,8-8L33.48,78.85Zm60-28.13H55.84V61.6H85.45Zm0,8.85V64.67H55.83v1.44h17.5a6.26,6.26,0,0,1,3.83,1.19,1.23,1.23,0,0,0,.65.29C80.34,67.6,82.87,67.59,85.44,67.59Zm0,7.4V70.64H79.66L79.06,75Z" fill="#fff"/><path d="M69.09,31.89c.17-2.32.46-2.88,1.47-2.93s1.33.48,1.65,3c.87,0,1.76,0,2.65,0a1.52,1.52,0,0,1,1.71,1.44c0,.89-.65,1.51-1.72,1.52-1.79,0-3.59,0-5.38,0-1.15,0-1.84.6-1.81,1.53s.69,1.42,1.81,1.44h2.41a4.46,4.46,0,0,1,.74,8.89l-.43.06c-.27,2.42-.59,3-1.63,2.93s-1.29-.61-1.48-3c-.87,0-1.75,0-2.64,0-1.09,0-1.75-.58-1.75-1.49s.66-1.47,1.76-1.47h5.29c1.17,0,1.86-.56,1.85-1.48s-.68-1.48-1.85-1.49H69.33a4.46,4.46,0,0,1-.64-8.9Z" fill="#fff"/></g></g></svg>